<svg id="Layer_1" data-name="Layer 1" xmlns="http://www.w3.org/2000/svg" viewBox="0 0 157.94 275.42"><defs><style>.cls-1{font-size:199.59px;}.cls-1,.cls-2{fill:#066;font-family:CenturySchoolbook, Century Schoolbook;}.cls-2{font-size:122.04px;}.cls-3{fill:#081f51;}</style></defs><text x="-174.09" y="27.33"/><text class="cls-1" transform="translate(0 171.85) scale(1.32 1)">s</text><text class="cls-2" transform="translate(49.47 238) scale(1.14 1)">Q</text><polygon class="cls-3" points="14.49 138.09 17.55 173.83 24.02 173.83 14.49 138.09"/><polygon class="cls-3" points="95.17 80.83 103.68 112.49 100.61 80.83 95.17 80.83"/><path class="cls-3" d="M304,205.2l1,2.56c.51,1.27.9,3,1.22,4s.95,2.49,1.21,3.39,1.34,3.51,1.34,3.51.83,1.59,1.15,2.23a8.22,8.22,0,0,0,1.59,2,6.67,6.67,0,0,0,2.11,1.34,10.29,10.29,0,0,0,2.62.26,3.66,3.66,0,0,0,1.85-.32,9.17,9.17,0,0,0,2.1-1.85,9.18,9.18,0,0,0,1.92-5.43c.06-.51.25-1.34.32-2.29l.06-1,4-.13s-.06,1.91,0,2.43a23.18,23.18,0,0,1-.45,3.76c-.19,1-.63,2.94-1,4.09a22.15,22.15,0,0,1-2.18,4.27,19.29,19.29,0,0,1-2.61,2.68,28,28,0,0,1-3.7,2.3,30.71,30.71,0,0,1-3,1.09c-.58.12-3.32.38-3.83.38a41.74,41.74,0,0,1-4.34-.51,26.48,26.48,0,0,1-3.2-1.09c-.63-.38-2.55-1.78-2.74-2s-1.47-1.47-2.17-2.37a9.52,9.52,0,0,1-1.53-2.68c-.32-.89-1-2-1.22-2.87s-.83-2.55-.95-3.45-.45-2.23-.51-2.87-.45-2.3-.58-3.06a21,21,0,0,1-.32-2.43C292.21,210.69,304,205.2,304,205.2Z" transform="translate(-174.09 27.33)"/><path class="cls-3" d="M227.89,89l15.83,1.87s4.77.68,7.83,1.36,7.83,1.37,10.05,2.05,4.76.85,7.66,2.21a34.13,34.13,0,0,1,6.63,3.91,23.64,23.64,0,0,1,4.6,4.09c.68,1,2.21,2.55,2.55,3.57s.94,2.39,1.19,3.32a20.7,20.7,0,0,1,.94,4c.09,1.37,0,5.79,0,5.79a20.29,20.29,0,0,0-4.08-8.17c-3.49-4.51-4.77-5.87-9.54-9s-10-4.43-12.25-5.19-9.87-3-11-3.41S227.89,89,227.89,89Z" transform="translate(-174.09 27.33)"/><path class="cls-3" d="M292.21,56.84" transform="translate(-174.09 27.33)"/><path class="cls-3" d="M295.81,131.05a7.59,7.59,0,0,1,1.83,1.71c.89,1.14,2.68,2.68,3.19,3.7s2.3,4.21,3.06,5.74,2.43,7.28,2.43,7.28l.64,5s.76,5.74.76,7.4.39,9.56,0,12.5-1.15,8.57-1.53,10-2.3,6.64-2.3,6.64l-3.44,6.64,4.34-2.56c1.66-1.78,4.47-7.15,4.47-7.15a24.92,24.92,0,0,0,2.68-8.8c.38-3.83.76-8.43.76-10.6s.13-4,0-6.51-.89-8-.89-8a74.81,74.81,0,0,0-3.19-9.43c-1.15-2.7-2.26-6-4.34-8.45a18.22,18.22,0,0,0-4.09-3.7,32.11,32.11,0,0,0-5.49-2.3Z" transform="translate(-174.09 27.33)"/></svg>